<svg width="390" height="458" viewBox="0 0 390 458" fill="none" xmlns="http://www.w3.org/2000/svg">
<path d="M301.233 226.419L210.747 45.447L202.838 36.8403L191.44 28.2336L176.786 26.3727L150.966 30.0945L120.493 45.447L210.747 226.419H301.233Z" fill="#077BBD"/>
<path d="M301.233 226.419L210.747 45.447L202.838 36.8403L191.44 28.2336L176.786 26.3727L150.966 30.0945L120.493 45.447L210.747 226.419H301.233Z" fill="url(#paint0_linear)"/>
<path d="M54.8966 112.438L145.383 293.41L153.292 302.017L164.69 310.623L179.344 312.484L205.164 308.763L235.636 293.41L145.383 112.438L54.8966 112.438Z" fill="#077BBD"/>
<path d="M54.8966 112.438L145.383 293.41L153.292 302.017L164.69 310.623L179.344 312.484L205.164 308.763L235.636 293.41L145.383 112.438L54.8966 112.438Z" fill="url(#paint1_linear)"/>
<path d="M90.2537 45.6796L0 225.954H90.2537L180.275 45.6796C189.064 32.4724 196.558 32.8841 210.98 45.9104C163.154 -37.0858 110.724 11.0978 90.2537 45.6796Z" fill="#077BBD"/>
<path d="M265.876 293.178L356.13 112.903L265.876 112.903L176.32 293.178C167.531 306.385 159.805 304.575 145.15 293.178C192.975 376.174 245.406 327.759 265.876 293.178Z" fill="#077BBD"/>
<g filter="url(#filter0_d)">
<path d="M35.68 420.2C35.68 416.904 36.416 413.96 37.888 411.368C39.392 408.744 41.424 406.712 43.984 405.272C46.576 403.8 49.472 403.064 52.672 403.064C56.416 403.064 59.696 404.024 62.512 405.944C65.328 407.864 67.296 410.52 68.416 413.912H60.688C59.92 412.312 58.832 411.112 57.424 410.312C56.048 409.512 54.448 409.112 52.624 409.112C50.672 409.112 48.928 409.576 47.392 410.504C45.888 411.4 44.704 412.68 43.84 414.344C43.008 416.008 42.592 417.96 42.592 420.2C42.592 422.408 43.008 424.36 43.84 426.056C44.704 427.72 45.888 429.016 47.392 429.944C48.928 430.84 50.672 431.288 52.624 431.288C54.448 431.288 56.048 430.888 57.424 430.088C58.832 429.256 59.92 428.04 60.688 426.44H68.416C67.296 429.864 65.328 432.536 62.512 434.456C59.728 436.344 56.448 437.288 52.672 437.288C49.472 437.288 46.576 436.568 43.984 435.128C41.424 433.656 39.392 431.624 37.888 429.032C36.416 426.44 35.68 423.496 35.68 420.2ZM80.8758 414.536C81.7398 413.128 82.8598 412.024 84.2358 411.224C85.6438 410.424 87.2438 410.024 89.0358 410.024V417.08H87.2598C85.1478 417.08 83.5478 417.576 82.4598 418.568C81.4038 419.56 80.8758 421.288 80.8758 423.752V437H74.1558V410.408H80.8758V414.536ZM91.834 423.608C91.834 420.92 92.362 418.536 93.418 416.456C94.506 414.376 95.962 412.776 97.786 411.656C99.642 410.536 101.706 409.976 103.978 409.976C105.962 409.976 107.69 410.376 109.162 411.176C110.666 411.976 111.866 412.984 112.762 414.2V410.408H119.53V437H112.762V433.112C111.898 434.36 110.698 435.4 109.162 436.232C107.658 437.032 105.914 437.432 103.93 437.432C101.69 437.432 99.642 436.856 97.786 435.704C95.962 434.552 94.506 432.936 93.418 430.856C92.362 428.744 91.834 426.328 91.834 423.608ZM112.762 423.704C112.762 422.072 112.442 420.68 111.802 419.528C111.162 418.344 110.298 417.448 109.21 416.84C108.122 416.2 106.954 415.88 105.706 415.88C104.458 415.88 103.306 416.184 102.25 416.792C101.194 417.4 100.33 418.296 99.658 419.48C99.018 420.632 98.698 422.008 98.698 423.608C98.698 425.208 99.018 426.616 99.658 427.832C100.33 429.016 101.194 429.928 102.25 430.568C103.338 431.208 104.49 431.528 105.706 431.528C106.954 431.528 108.122 431.224 109.21 430.616C110.298 429.976 111.162 429.08 111.802 427.928C112.442 426.744 112.762 425.336 112.762 423.704ZM132.237 431.48H144.093V437H124.605V431.576L136.221 415.928H124.653V410.408H143.949V415.832L132.237 431.48ZM174.736 410.408L158.272 449.576H151.12L156.88 436.328L146.224 410.408H153.76L160.624 428.984L167.584 410.408H174.736ZM237.762 403.496V437H231.042V415.208L222.066 437H216.978L207.954 415.208V437H201.234V403.496H208.866L219.522 428.408L230.178 403.496H237.762ZM247.814 407.24C246.63 407.24 245.638 406.872 244.838 406.136C244.07 405.368 243.686 404.424 243.686 403.304C243.686 402.184 244.07 401.256 244.838 400.52C245.638 399.752 246.63 399.368 247.814 399.368C248.998 399.368 249.974 399.752 250.742 400.52C251.542 401.256 251.942 402.184 251.942 403.304C251.942 404.424 251.542 405.368 250.742 406.136C249.974 406.872 248.998 407.24 247.814 407.24ZM251.126 410.408V437H244.406V410.408H251.126ZM273.509 437L264.485 425.672V437H257.765V401.48H264.485V421.688L273.413 410.408H282.149L270.437 423.752L282.245 437H273.509ZM310.516 423.128C310.516 424.088 310.452 424.952 310.324 425.72H290.884C291.044 427.64 291.716 429.144 292.9 430.232C294.084 431.32 295.54 431.864 297.268 431.864C299.764 431.864 301.54 430.792 302.596 428.648H309.844C309.076 431.208 307.604 433.32 305.428 434.984C303.252 436.616 300.58 437.432 297.412 437.432C294.852 437.432 292.548 436.872 290.5 435.752C288.484 434.6 286.9 432.984 285.748 430.904C284.628 428.824 284.068 426.424 284.068 423.704C284.068 420.952 284.628 418.536 285.748 416.456C286.868 414.376 288.436 412.776 290.452 411.656C292.468 410.536 294.788 409.976 297.412 409.976C299.94 409.976 302.196 410.52 304.18 411.608C306.196 412.696 307.748 414.248 308.836 416.264C309.956 418.248 310.516 420.536 310.516 423.128ZM303.556 421.208C303.524 419.48 302.9 418.104 301.684 417.08C300.468 416.024 298.98 415.496 297.22 415.496C295.556 415.496 294.148 416.008 292.996 417.032C291.876 418.024 291.188 419.416 290.932 421.208H303.556Z" fill="#274888"/>
</g>
<defs>
<filter id="filter0_d" x="31.68" y="399.368" width="282.836" height="58.208" filterUnits="userSpaceOnUse" color-interpolation-filters="sRGB">
<feFlood flood-opacity="0" result="BackgroundImageFix"/>
<feColorMatrix in="SourceAlpha" type="matrix" values="0 0 0 0 0 0 0 0 0 0 0 0 0 0 0 0 0 0 127 0"/>
<feOffset dy="4"/>
<feGaussianBlur stdDeviation="2"/>
<feColorMatrix type="matrix" values="0 0 0 0 0 0 0 0 0 0 0 0 0 0 0 0 0 0 0.25 0"/>
<feBlend mode="normal" in2="BackgroundImageFix" result="effect1_dropShadow"/>
<feBlend mode="normal" in="SourceGraphic" in2="effect1_dropShadow" result="shape"/>
</filter>
<linearGradient id="paint0_linear" x1="120.261" y1="-44.1088" x2="268.435" y2="245.726" gradientUnits="userSpaceOnUse">
<stop stop-color="white"/>
<stop offset="0.510346" stop-color="#72367C" stop-opacity="0.661584"/>
<stop offset="1" stop-color="#143668" stop-opacity="0"/>
</linearGradient>
<linearGradient id="paint1_linear" x1="235.869" y1="382.966" x2="87.695" y2="93.1307" gradientUnits="userSpaceOnUse">
<stop stop-color="white"/>
<stop offset="0.510346" stop-color="#72367C" stop-opacity="0.661584"/>
<stop offset="1" stop-color="#143668" stop-opacity="0"/>
</linearGradient>
</defs>
</svg>
