<svg width="305" height="257" viewBox="0 0 305 257" fill="none" xmlns="http://www.w3.org/2000/svg">
<path d="M218.464 66.8225C227.312 60.7568 229.664 48.5418 222.335 40.7085C208.502 25.9234 191.303 14.5461 172.083 7.61678C146.742 -1.51956 119.171 -2.46126 93.2663 4.92478C67.3612 12.3108 44.4324 27.6511 27.7202 48.7775C11.0079 69.904 1.35757 95.7482 0.132874 122.658C-1.09182 149.567 6.17111 176.181 20.8952 198.739C35.6193 221.296 57.06 238.655 82.187 248.364C107.314 258.072 134.857 259.639 160.923 252.842C180.692 247.687 198.853 237.919 213.972 224.452C221.982 217.317 220.75 204.939 212.49 198.094V198.094C204.23 191.25 192.084 192.609 183.624 199.204C174.048 206.67 163.001 212.155 151.121 215.253C132.935 219.995 113.719 218.902 96.1878 212.128C78.6569 205.354 63.6979 193.243 53.425 177.505C43.1521 161.767 38.0849 143.199 38.9393 124.424C39.7938 105.649 46.5268 87.618 58.1867 72.8783C69.8467 58.1385 85.844 47.4358 103.918 42.2826C121.991 37.1294 141.228 37.7864 158.908 44.1608C170.457 48.3247 180.96 54.7908 189.819 63.0953C197.644 70.4321 209.617 72.8882 218.464 66.8225V66.8225Z" fill="url(#paint0_linear)"/>
<rect x="75" y="81" width="230" height="100" rx="35" fill="url(#paint1_linear)"/>
<path d="M124.812 108.344V120.281H130.062V132.625H124.812C124.812 135.104 125.198 136.812 125.969 137.75C126.76 138.688 128.198 139.156 130.281 139.156V151.438C129.677 151.458 129.229 151.469 128.938 151.469C126.292 151.469 123.792 150.854 121.438 149.625C119.104 148.396 117.229 146.729 115.812 144.625C114.021 141.938 113.125 138.375 113.125 133.938V108.344H124.812ZM152.938 119.531V132.031C152.125 131.573 151.385 131.344 150.719 131.344C148.594 131.344 147.531 132.969 147.531 136.219V151H135.844V133.969C135.844 129.469 137.073 125.885 139.531 123.219C141.99 120.531 145.271 119.188 149.375 119.188C150.292 119.188 151.479 119.302 152.938 119.531ZM168.094 119.844V151H156.406V119.844H168.094ZM162.281 105.938C163.865 105.938 165.229 106.5 166.375 107.625C167.542 108.729 168.125 110.042 168.125 111.562C168.125 113.188 167.573 114.521 166.469 115.562C165.385 116.604 163.99 117.125 162.281 117.125C160.573 117.125 159.167 116.604 158.062 115.562C156.979 114.521 156.438 113.188 156.438 111.562C156.438 110.042 157.01 108.729 158.156 107.625C159.323 106.5 160.698 105.938 162.281 105.938ZM191.594 138.156V148.875C189.906 149.5 188.292 149.812 186.75 149.812C182.979 149.812 179.781 148.385 177.156 145.531C174.552 142.677 173.25 139.188 173.25 135.062C173.25 130.604 174.823 126.844 177.969 123.781C181.115 120.719 184.979 119.188 189.562 119.188C192 119.188 194.333 119.677 196.562 120.656C198.792 121.635 200.542 122.948 201.812 124.594C203.938 127.323 205 131.281 205 136.469V146.719C205 152.281 203.417 156.792 200.25 160.25C197.104 163.729 193 165.469 187.938 165.469C186.396 165.469 184.448 165.083 182.094 164.312V153.688C183.615 154.521 185.156 154.938 186.719 154.938C188.823 154.938 190.448 154.24 191.594 152.844C192.74 151.469 193.312 149.49 193.312 146.906V135.188C193.312 131.917 191.99 130.281 189.344 130.281C188.219 130.281 187.229 130.719 186.375 131.594C185.542 132.448 185.125 133.438 185.125 134.562C185.125 135.75 185.521 136.74 186.312 137.531C187.125 138.323 188.125 138.719 189.312 138.719C190.104 138.719 190.865 138.531 191.594 138.156ZM228.531 138.156V148.875C226.844 149.5 225.229 149.812 223.688 149.812C219.917 149.812 216.719 148.385 214.094 145.531C211.49 142.677 210.188 139.188 210.188 135.062C210.188 130.604 211.76 126.844 214.906 123.781C218.052 120.719 221.917 119.188 226.5 119.188C228.938 119.188 231.271 119.677 233.5 120.656C235.729 121.635 237.479 122.948 238.75 124.594C240.875 127.323 241.938 131.281 241.938 136.469V146.719C241.938 152.281 240.354 156.792 237.188 160.25C234.042 163.729 229.938 165.469 224.875 165.469C223.333 165.469 221.385 165.083 219.031 164.312V153.688C220.552 154.521 222.094 154.938 223.656 154.938C225.76 154.938 227.385 154.24 228.531 152.844C229.677 151.469 230.25 149.49 230.25 146.906V135.188C230.25 131.917 228.927 130.281 226.281 130.281C225.156 130.281 224.167 130.719 223.312 131.594C222.479 132.448 222.062 133.438 222.062 134.562C222.062 135.75 222.458 136.74 223.25 137.531C224.062 138.323 225.062 138.719 226.25 138.719C227.042 138.719 227.802 138.531 228.531 138.156ZM263.625 119.188C268.042 119.188 271.823 120.781 274.969 123.969C278.135 127.135 279.719 130.938 279.719 135.375C279.719 139.875 278.115 143.708 274.906 146.875C271.719 150.042 267.865 151.625 263.344 151.625C258.823 151.625 254.958 150.042 251.75 146.875C248.542 143.688 246.938 139.854 246.938 135.375C246.938 130.812 248.542 126.979 251.75 123.875C254.958 120.75 258.917 119.188 263.625 119.188ZM263.312 130.719C262.062 130.719 261 131.177 260.125 132.094C259.25 132.99 258.812 134.094 258.812 135.406C258.812 136.698 259.25 137.802 260.125 138.719C261.021 139.635 262.083 140.094 263.312 140.094C264.562 140.094 265.625 139.635 266.5 138.719C267.396 137.802 267.844 136.698 267.844 135.406C267.844 134.094 267.406 132.99 266.531 132.094C265.656 131.177 264.583 130.719 263.312 130.719Z" fill="url(#paint2_linear)"/>
<defs>
<linearGradient id="paint0_linear" x1="171.5" y1="129" x2="-268" y2="129" gradientUnits="userSpaceOnUse">
<stop stop-color="#0CD8BF"/>
<stop offset="1" stop-color="#CC23C8"/>
</linearGradient>
<linearGradient id="paint1_linear" x1="-339" y1="131" x2="392" y2="131" gradientUnits="userSpaceOnUse">
<stop stop-color="#0CD8BF"/>
<stop offset="1" stop-color="#EF00C9"/>
</linearGradient>
<linearGradient id="paint2_linear" x1="664.5" y1="138" x2="39" y2="133.5" gradientUnits="userSpaceOnUse">
<stop stop-color="#FF0E0E"/>
<stop offset="1" stop-color="#FAFF00"/>
</linearGradient>
</defs>
</svg>
