<?xml version="1.0" encoding="UTF-8" standalone="no"?>
<!DOCTYPE svg PUBLIC "-//W3C//DTD SVG 1.1//EN" "http://www.w3.org/Graphics/SVG/1.1/DTD/svg11.dtd">
<svg version="1.1" xmlns="http://www.w3.org/2000/svg" xmlns:xlink="http://www.w3.org/1999/xlink" preserveAspectRatio="xMidYMid meet" viewBox="0 0 640 640" width="640" height="640"><defs><path d="M551.27 337.97C551.27 465.62 447.64 569.25 320 569.25C192.36 569.25 88.73 465.62 88.73 337.97C88.73 210.33 192.36 106.7 320 106.7C447.64 106.7 551.27 210.33 551.27 337.97Z" id="a8yiYPzcEm"></path><path d="M544.83 282.63L546.17 288.36L547.92 297.38L549.31 306.52L550.33 315.77L550.99 325.12L551.27 334.56L551.17 344.09L550.68 353.61L549.82 363.01L548.58 372.3L546.98 381.47L545.02 390.51L542.72 399.4L540.08 408.16L537.11 416.76L533.81 425.19L530.2 433.47L526.28 441.57L522.05 449.48L517.54 457.21L512.74 464.74L507.66 472.07L502.31 479.19L496.69 486.09L490.83 492.76L484.71 499.21L478.36 505.41L471.77 511.37L464.96 517.07L457.93 522.51L450.7 527.69L443.26 532.58L435.63 537.2L427.82 541.52L419.82 545.55L411.66 549.28L403.34 552.69L394.85 555.78L386.23 558.55L377.46 560.98L372.05 562.25L366.73 559.84L349.29 551.43L332.96 543.04L317.73 534.68L303.61 526.35L290.58 518.04L278.66 509.76L267.84 501.5L258.12 493.27L249.51 485.06L242 476.88L235.59 468.73L230.28 460.6L226.08 452.49L222.98 444.41L220.98 436.36L220.09 428.33L220.29 420.33L221.6 412.35L224.02 404.4L227.53 396.47L232.15 388.57L237.87 380.7L244.69 372.85L252.62 365.02L261.65 357.22L271.78 349.45L283.01 341.7L295.35 333.98L308.79 326.28L323.33 318.61L338.97 310.96L355.72 303.34L373.57 295.75L392.52 288.18L412.58 280.63L433.73 273.11L455.99 265.62L479.36 258.15L503.82 250.71L529.39 243.29L538.9 267.13L544.83 282.63Z" id="bOHm7ExMl"></path><path d="M481.04 206.28C481.04 307.91 458.37 390.43 430.44 390.43C402.51 390.43 379.83 307.91 379.83 206.28C379.83 104.64 402.51 22.13 430.44 22.13C458.37 22.13 481.04 104.64 481.04 206.28Z" id="c1f7JQdXnq"></path></defs><g><g><g><use xlink:href="#a8yiYPzcEm" opacity="1" fill="#1de1c4" fill-opacity="1"></use><g><use xlink:href="#a8yiYPzcEm" opacity="1" fill-opacity="0" stroke="#ffffff" stroke-width="4" stroke-opacity="1"></use></g></g><g><use xlink:href="#bOHm7ExMl" opacity="1" fill="#2990d8" fill-opacity="1"></use><g><use xlink:href="#bOHm7ExMl" opacity="1" fill-opacity="0" stroke="#ffffff" stroke-width="4" stroke-opacity="1"></use></g></g><g><use xlink:href="#c1f7JQdXnq" opacity="1" fill="#f3156e" fill-opacity="1"></use><g><use xlink:href="#c1f7JQdXnq" opacity="1" fill-opacity="0" stroke="#ffffff" stroke-width="4" stroke-opacity="1"></use></g></g></g></g></svg>