<?xml version="1.0" encoding="UTF-8" standalone="no"?>
<!DOCTYPE svg PUBLIC "-//W3C//DTD SVG 1.1//EN" "http://www.w3.org/Graphics/SVG/1.1/DTD/svg11.dtd">
<svg version="1.1" xmlns="http://www.w3.org/2000/svg" xmlns:xlink="http://www.w3.org/1999/xlink" preserveAspectRatio="xMidYMid meet" viewBox="0 0 1080 1080" width="1080" height="1080"><defs><path d="M914.49 580.15C914.49 787.12 746.46 955.15 539.49 955.15C332.53 955.15 164.49 787.12 164.49 580.15C164.49 373.18 332.53 205.15 539.49 205.15C746.46 205.15 914.49 373.18 914.49 580.15Z" id="c18AIjF6r2"></path><radialGradient id="gradienta1IW1LVnm9" gradientUnits="userSpaceOnUse" cx="357.81" cy="767.85" dx="752.03" dy="321.69" r="595.37"><stop style="stop-color: #ffffff;stop-opacity: 1" offset="0%"></stop><stop style="stop-color: #1c8172;stop-opacity: 1" offset="100%"></stop></radialGradient><mask id="maska3gm72zHAr" x="156.49" y="197.15" width="766" height="766" maskUnits="userSpaceOnUse"><rect x="156.49" y="197.15" width="766" height="766" fill="white"></rect><use xlink:href="#c18AIjF6r2" opacity="1" fill="black"></use></mask><path d="" id="b2gFWmO0QU"></path><path d="M876.64 410.43L888.74 441.18L902.87 478.48L904.72 483.59L906.59 490.55L909.87 505.08L912.58 519.83L914.71 534.76L916.25 549.88L917.18 565.17L917.49 580.62L917.18 596.07L916.25 611.36L914.71 626.48L912.58 641.41L909.87 656.16L906.59 670.69L902.75 685.01L898.36 699.1L893.44 712.94L888.01 726.53L882.06 739.85L875.61 752.89L868.68 765.64L861.28 778.09L853.41 790.23L845.1 802.03L836.35 813.5L827.18 824.61L817.59 835.36L807.61 845.73L797.23 855.72L786.48 865.31L775.37 874.48L763.9 883.23L752.1 891.54L739.97 899.4L727.52 906.81L714.77 913.74L701.72 920.18L688.4 926.13L674.81 931.57L660.97 936.49L656.59 937.85L652.34 935.92L626.37 923.33L602.01 910.7L579.27 898.03L558.15 885.32L538.64 872.57L520.74 859.79L504.46 846.97L489.8 834.11L476.75 821.21L465.32 808.27L455.5 795.3L447.3 782.29L440.71 769.24L435.74 756.15L432.39 743.03L430.65 729.86L430.52 716.66L432.01 703.42L435.12 690.15L439.84 676.83L446.18 663.48L454.13 650.09L463.7 636.66L474.89 623.2L487.69 609.69L502.1 596.15L518.14 582.57L535.78 568.95L555.04 555.3L575.92 541.61L598.42 527.87L622.52 514.11L648.25 500.3L675.59 486.45L704.54 472.57L735.12 458.65L767.3 444.69L801.1 430.7L836.52 416.66L872.67 402.93L875.61 408.35L876.64 410.43Z" id="d4K5D3yULl"></path><linearGradient id="gradientd3xvQtBw2h" gradientUnits="userSpaceOnUse" x1="440.01" y1="802.93" x2="1312.01" y2="91.66"><stop style="stop-color: #13a6ff;stop-opacity: 1" offset="0%"></stop><stop style="stop-color: #010000;stop-opacity: 1" offset="100%"></stop></linearGradient><path d="M792.84 356.09C792.84 502.03 757.72 620.52 714.45 620.52C671.19 620.52 636.06 502.03 636.06 356.09C636.06 210.15 671.19 91.66 714.45 91.66C757.72 91.66 792.84 210.15 792.84 356.09Z" id="b1LZE74tc8"></path><radialGradient id="gradientdv0ahFhx" gradientUnits="userSpaceOnUse" cx="392.45" cy="769.66" dx="728.84" dy="298.52" r="578.91"><stop style="stop-color: #ffffff;stop-opacity: 1" offset="0%"></stop><stop style="stop-color: #de0c33;stop-opacity: 1" offset="100%"></stop></radialGradient><path d="" id="b6O4HIL42"></path></defs><g><g><g><use xlink:href="#c18AIjF6r2" opacity="1" fill="url(#gradienta1IW1LVnm9)"></use><g mask="url(#maska3gm72zHAr)"><use xlink:href="#c18AIjF6r2" opacity="1" fill-opacity="0" stroke="#000000" stroke-width="8" stroke-opacity="1"></use></g></g><g><g><use xlink:href="#b2gFWmO0QU" opacity="1" fill-opacity="0" stroke="#110311" stroke-width="1" stroke-opacity="1"></use></g></g><g><use xlink:href="#d4K5D3yULl" opacity="1" fill="url(#gradientd3xvQtBw2h)"></use><g><use xlink:href="#d4K5D3yULl" opacity="1" fill-opacity="0" stroke="#000000" stroke-width="4" stroke-opacity="1"></use></g></g><g><use xlink:href="#b1LZE74tc8" opacity="1" fill="url(#gradientdv0ahFhx)"></use><g><use xlink:href="#b1LZE74tc8" opacity="1" fill-opacity="0" stroke="#000000" stroke-width="4" stroke-opacity="1"></use></g></g><g><g><use xlink:href="#b6O4HIL42" opacity="1" fill-opacity="0" stroke="#000000" stroke-width="1" stroke-opacity="1"></use></g></g></g></g></svg>